<?xml version="1.0" standalone="no"?>
<!DOCTYPE svg PUBLIC "-//W3C//DTD SVG 20010904//EN"
 "http://www.w3.org/TR/2001/REC-SVG-20010904/DTD/svg10.dtd">
<svg version="1.0" xmlns="http://www.w3.org/2000/svg"
 width="620.000000pt" height="620.000000pt" viewBox="0 0 620.000000 620.000000"
 preserveAspectRatio="xMidYMid meet">
<metadata>
Created by potrace 1.14, written by Peter Selinger 2001-2017
</metadata>
<g transform="translate(0.000000,620.000000) scale(0.100000,-0.100000)"
fill="#000000" stroke="none">
<path d="M2952 6149 l3 -50 133 0 c72 0 139 0 147 1 11 0 15 12 15 49 l0 50
-151 0 -150 0 3 -50z"/>
<path d="M3557 6156 c-2 -6 -4 -29 -6 -52 l-2 -41 48 -6 c26 -4 57 -8 68 -11
78 -18 168 -36 170 -34 5 9 26 90 23 93 -2 2 -61 15 -133 29 -71 15 -138 28
-147 30 -9 2 -18 -1 -21 -8z"/>
<path d="M2470 6133 c-52 -12 -103 -24 -112 -25 -10 -1 -18 -4 -18 -6 0 -6 23
-86 26 -90 1 -2 58 8 126 23 67 14 133 28 144 31 19 3 21 8 15 36 -4 18 -10
38 -12 43 -7 17 -70 13 -169 -12z"/>
<path d="M1997 5995 c-83 -31 -227 -98 -227 -106 0 -4 8 -24 17 -44 17 -36 31
-42 61 -25 23 13 151 70 158 70 2 0 20 6 39 14 l34 15 -15 45 c-9 25 -19 46
-22 45 -4 0 -24 -7 -45 -14z"/>
<path d="M4137 5968 c-10 -23 -14 -45 -9 -49 4 -3 27 -14 52 -23 59 -23 105
-43 163 -71 l48 -23 23 46 24 47 -122 52 c-171 72 -160 71 -179 21z"/>
<path d="M1390 5675 c-52 -35 -107 -75 -122 -87 l-27 -23 32 -38 c32 -37 33
-37 52 -19 11 10 63 46 115 81 52 35 96 67 98 72 4 10 -36 79 -46 79 -4 0 -50
-29 -102 -65z"/>
<path d="M4681 5706 c-27 -42 -26 -53 2 -67 12 -6 65 -42 118 -79 l96 -67 27
34 c15 19 26 40 23 46 -4 12 -227 167 -239 167 -4 0 -16 -15 -27 -34z"/>
<path d="M2809 5496 c-2 -2 -40 -6 -84 -10 -44 -3 -91 -8 -105 -10 -14 -3 -38
-7 -55 -9 -16 -3 -41 -8 -55 -11 -14 -3 -36 -8 -50 -10 -76 -12 -252 -64 -370
-108 -439 -163 -834 -454 -1132 -835 -49 -61 -88 -114 -88 -117 0 -3 -20 -33
-44 -68 -51 -74 -160 -279 -209 -393 -97 -229 -165 -494 -194 -760 -10 -92
-10 -451 0 -540 58 -501 214 -906 488 -1271 92 -122 295 -329 414 -421 74 -58
196 -140 310 -210 215 -131 620 -262 921 -298 33 -4 68 -10 79 -12 51 -13 547
-10 665 3 213 23 575 105 662 150 15 8 30 14 33 13 15 -2 165 61 285 121 156
77 197 101 196 114 -1 6 31 34 69 63 155 118 195 152 315 273 225 225 396 488
515 789 61 158 125 398 140 527 3 27 8 56 10 64 19 69 27 510 12 645 -9 81
-23 170 -37 235 -5 25 -12 59 -15 75 -8 49 -73 264 -106 350 -65 171 -250 518
-294 555 -8 7 -15 18 -15 25 0 8 -4 15 -8 17 -4 2 -30 32 -57 68 -27 36 -59
76 -70 89 -44 54 -264 271 -320 317 -33 27 -65 54 -71 59 -6 6 -22 17 -34 25
-12 8 -45 32 -73 53 -28 20 -54 37 -58 37 -4 0 -14 6 -21 14 -32 31 -295 169
-416 217 -153 62 -363 124 -482 144 -19 3 -42 8 -50 10 -8 2 -42 7 -75 11 -33
3 -69 8 -80 11 -25 6 -440 15 -446 9z"/>
<path d="M914 5278 c-128 -132 -124 -123 -85 -159 39 -35 32 -39 155 88 l89
92 -29 35 c-16 19 -31 35 -34 35 -3 1 -46 -41 -96 -91z"/>
<path d="M5156 5334 l-29 -35 94 -97 c52 -53 99 -100 106 -104 11 -8 73 39 73
56 0 10 -201 216 -209 215 -4 0 -19 -16 -35 -35z"/>
<path d="M546 4830 c-31 -44 -56 -82 -56 -85 0 -4 -12 -22 -26 -41 -14 -18
-24 -40 -21 -47 7 -18 79 -54 84 -41 2 5 37 61 78 123 l76 112 -23 20 c-52 45
-52 45 -112 -41z"/>
<path d="M5562 4886 c-18 -13 -35 -26 -38 -29 -3 -3 20 -42 50 -87 31 -45 65
-99 78 -121 12 -21 26 -39 31 -39 13 0 77 40 77 49 0 13 -156 253 -163 251 -1
-1 -17 -11 -35 -24z"/>
<path d="M277 4348 c-8 -18 -24 -58 -37 -88 -12 -30 -28 -68 -35 -85 -30 -70
-29 -74 9 -90 53 -22 62 -19 76 28 8 23 31 82 52 131 21 49 38 91 38 93 0 3
-77 43 -84 43 -3 0 -12 -15 -19 -32z"/>
<path d="M5857 4358 c-22 -11 -36 -24 -33 -31 2 -7 27 -68 55 -137 33 -81 55
-124 63 -121 60 19 78 27 78 34 0 9 -84 220 -102 255 -13 26 -12 26 -61 0z"/>
<path d="M81 3763 c-9 -34 -20 -95 -36 -193 -3 -19 -8 -42 -10 -51 -4 -12 6
-18 41 -26 56 -13 53 -18 86 159 l23 127 -25 6 c-67 18 -69 17 -79 -22z"/>
<path d="M6049 3788 l-36 -9 23 -112 c13 -62 24 -121 24 -132 1 -39 15 -48 64
-41 41 6 46 10 41 29 -3 12 -7 33 -9 47 -27 163 -44 230 -60 229 -6 -1 -27 -5
-47 -11z"/>
<path d="M5 3190 c-2 -3 -4 -72 -3 -153 l0 -146 49 1 48 0 3 149 3 149 -25 1
c-14 0 -35 2 -48 3 -13 2 -25 0 -27 -4z"/>
<path d="M6140 3192 l-45 -3 2 -147 2 -147 50 -3 49 -3 1 143 c1 79 -2 148 -7
153 -4 6 -27 9 -52 7z"/>
<path d="M115 2604 c-5 -1 -27 -5 -48 -9 l-38 -6 6 -42 c15 -103 42 -237 49
-245 6 -6 67 6 83 16 10 6 10 17 3 43 -6 18 -13 54 -16 79 -14 99 -30 167 -39
164z"/>
<path d="M6065 2553 c-4 -21 -15 -84 -26 -139 -10 -56 -19 -104 -19 -107 0 -3
15 -8 33 -12 17 -4 39 -8 47 -11 12 -3 19 15 33 84 9 48 19 101 22 117 2 17 7
44 9 61 6 34 -8 44 -66 44 -24 0 -28 -5 -33 -37z"/>
<path d="M211 2022 c-39 -13 -43 -17 -37 -42 6 -35 84 -232 95 -243 11 -11 92
25 87 38 -2 5 -23 60 -46 120 -23 61 -45 117 -48 126 -6 15 -11 15 -51 1z"/>
<path d="M5887 1893 c-26 -65 -50 -126 -53 -135 -4 -12 5 -22 36 -38 23 -12
43 -20 45 -18 13 15 119 279 113 282 -10 6 -76 26 -84 26 -5 0 -31 -53 -57
-117z"/>
<path d="M447 1481 c-15 -10 -30 -20 -33 -23 -3 -3 16 -39 41 -79 26 -41 59
-93 73 -116 15 -24 33 -45 40 -48 7 -3 28 7 47 22 l33 26 -23 36 c-13 20 -47
73 -75 119 -28 45 -57 82 -63 81 -7 0 -24 -8 -40 -18z"/>
<path d="M5603 1354 l-81 -123 33 -26 c19 -14 38 -25 43 -25 6 0 47 55 92 122
90 133 89 127 20 162 -24 12 -27 10 -107 -110z"/>
<path d="M790 1000 l-32 -30 104 -106 105 -106 31 32 c18 17 32 35 32 39 0 10
-190 201 -200 201 -4 0 -22 -14 -40 -30z"/>
<path d="M5265 945 c-33 -34 -81 -79 -106 -100 l-47 -39 30 -38 c23 -28 35
-35 47 -28 24 12 217 197 211 202 -3 1 -21 17 -40 34 l-35 30 -60 -61z"/>
<path d="M1235 610 c-15 -22 -26 -42 -24 -44 36 -36 241 -158 249 -149 4 4 16
24 28 44 l22 36 -26 12 c-22 10 -179 109 -210 133 -7 5 -21 -6 -39 -32z"/>
<path d="M4743 543 l-122 -74 22 -37 c11 -20 22 -39 24 -41 3 -4 67 27 107 52
11 7 51 31 88 54 37 24 68 45 68 49 0 9 -52 74 -59 73 -3 0 -61 -35 -128 -76z"/>
<path d="M1744 315 c-9 -25 -15 -47 -13 -49 9 -8 221 -87 247 -92 27 -6 30 -3
45 38 l15 45 -57 19 c-31 10 -91 33 -134 51 -43 18 -80 33 -82 33 -2 0 -11
-20 -21 -45z"/>
<path d="M4280 318 c-30 -12 -89 -33 -130 -47 l-76 -26 13 -47 14 -47 48 15
c54 16 231 81 237 87 8 7 -29 87 -40 86 -6 0 -36 -10 -66 -21z"/>
<path d="M2315 170 c-2 -4 -7 -25 -11 -48 -7 -46 -16 -39 91 -61 116 -23 186
-33 192 -27 3 3 8 25 10 49 l5 44 -79 13 c-43 7 -106 18 -141 25 -34 7 -64 9
-67 5z"/>
<path d="M3680 154 c-36 -7 -92 -16 -125 -19 -33 -4 -62 -8 -64 -10 -2 -2 0
-25 4 -51 l7 -46 56 7 c31 4 63 8 72 10 8 2 50 8 93 15 l79 13 -6 30 c-3 16
-6 38 -6 48 0 22 -15 23 -110 3z"/>
<path d="M2892 51 l-1 -49 138 -1 c76 -1 144 1 152 4 9 3 14 17 13 33 -1 15
-3 35 -3 45 -1 15 -15 17 -150 17 l-149 0 0 -49z"/>
</g>
</svg>
