<svg width="257" height="96" viewBox="0 0 257 96" fill="none" xmlns="http://www.w3.org/2000/svg">
<g clip-path="url(#clip0_35_5714)">
<path d="M132.684 31.7971L144.911 31.0022C145.19 33.0129 145.702 34.5092 146.538 35.5847C147.887 37.2681 149.746 38.1098 152.21 38.1098C154.023 38.1098 155.465 37.689 156.441 36.8005C157.371 36.0991 157.929 34.9768 157.929 33.8078C157.929 32.6856 157.417 31.6101 156.534 30.9086C155.604 30.0669 153.419 29.2253 149.979 28.4771C144.353 27.2145 140.309 25.5311 137.938 23.3801C135.567 21.3694 134.218 18.4235 134.311 15.2905C134.311 13.1395 134.962 10.9885 136.171 9.21161C137.566 7.20089 139.472 5.61102 141.75 4.72257C144.214 3.64707 147.654 3.08594 151.978 3.08594C157.278 3.08594 161.322 4.06792 164.112 6.07863C166.901 8.04259 168.575 11.2223 169.086 15.5711L156.999 16.2725C156.673 14.4021 156.022 13.046 154.953 12.1575C153.884 11.2691 152.489 10.8482 150.676 10.8482C149.188 10.8482 148.073 11.1756 147.329 11.7835C146.631 12.3446 146.166 13.1863 146.213 14.1215C146.213 14.8229 146.585 15.4776 147.143 15.8984C147.747 16.4595 149.188 16.9739 151.466 17.4415C157.092 18.6573 161.09 19.8731 163.554 21.1356C166.018 22.3982 167.785 23.9413 168.854 25.7649C169.97 27.6354 170.528 29.7864 170.481 31.9841C170.481 34.6027 169.737 37.2214 168.249 39.4191C166.715 41.7104 164.577 43.4873 162.066 44.5628C159.416 45.7318 156.069 46.3397 152.071 46.3397C145.004 46.3397 140.123 44.9837 137.38 42.2248C134.637 39.4659 133.01 36.0056 132.684 31.7971ZM2.92891 45.6383V3.83411H24.3611C28.3128 3.83411 31.3812 4.16144 33.4732 4.86285C35.5188 5.5175 37.332 6.87357 38.5407 8.69724C39.8889 10.708 40.5398 13.046 40.4933 15.4776C40.6328 19.5925 38.5407 23.5204 34.9609 25.5779C33.5662 26.3728 32.032 26.934 30.4513 27.2145C31.6136 27.5419 32.7759 28.103 33.7987 28.7576C34.589 29.4123 35.2399 30.1605 35.8442 30.9554C36.5416 31.7503 37.146 32.6388 37.6574 33.574L43.8871 45.6851H29.2891L22.4085 32.8258C21.5251 31.1892 20.7813 30.1137 20.0839 29.5993C19.1541 28.9447 18.0384 28.6174 16.9226 28.6174H15.8068V45.5915H2.92891V45.6383ZM15.8068 20.7615H21.2462C22.4085 20.668 23.5242 20.481 24.64 20.2004C25.4768 20.0601 26.2207 19.5925 26.7321 18.8911C27.9873 17.2077 27.8014 14.8229 26.2672 13.3733C25.4304 12.6719 23.8032 12.2978 21.4787 12.2978H15.8068V20.7615ZM0 81.4571L12.227 80.6622C12.506 82.6729 13.0174 84.1692 13.8542 85.2447C15.1559 86.9281 17.062 87.8166 19.5261 87.8166C21.3392 87.8166 22.7804 87.3957 23.7567 86.5073C24.6865 85.7591 25.2444 84.6836 25.2444 83.5146C25.2444 82.3923 24.733 81.3168 23.8497 80.6154C22.9199 79.7737 20.7348 78.932 17.248 78.1838C11.6226 76.9213 7.57797 75.2379 5.20695 73.0869C2.83593 71.0762 1.4877 68.1303 1.58068 64.9973C1.58068 62.8463 2.23155 60.6953 3.4403 58.9184C4.83502 56.9077 6.74114 55.3178 9.01918 54.4293C11.4832 53.3538 14.9235 52.7927 19.2471 52.7927C24.547 52.7927 28.5917 53.7747 31.3812 55.7854C34.1706 57.7961 35.7978 60.9291 36.3092 65.2779L24.2216 65.9793C23.8962 64.1088 23.2453 62.7528 22.176 61.8643C21.1532 60.9759 19.712 60.555 17.8989 60.6018C16.4112 60.6018 15.2954 60.9291 14.5516 61.5838C13.8077 62.1449 13.3893 62.9866 13.4358 63.9218C13.4358 64.6232 13.8077 65.2779 14.3656 65.6987C14.97 66.2598 16.4112 66.7742 18.6892 67.2418C24.3146 68.4576 28.3128 69.6734 30.7768 70.9359C33.2408 72.1985 35.0074 73.7416 36.0767 75.5652C37.1925 77.4357 37.7504 79.5867 37.7504 81.7377C37.7504 84.3563 36.96 86.9281 35.5188 89.1259C33.9846 91.4172 31.8461 93.1941 29.3356 94.2696C26.6856 95.4386 23.3383 96.0465 19.3401 96.0465C12.2735 96.0465 7.392 94.6904 4.64906 91.9315C1.90611 89.1259 0.371925 85.6656 0 81.4571H0Z" fill="white"/>
<path d="M61.8328 78.1841L73.0835 81.5976C72.4792 84.4501 71.2239 87.1622 69.5038 89.547C67.9231 91.6512 65.831 93.2879 63.46 94.3634C61.0425 95.4389 57.9741 96 54.2548 96C49.7453 96 46.026 95.3453 43.1901 94.036C40.3077 92.7267 37.8437 90.3887 35.7516 87.0687C33.6595 83.7486 32.6367 79.4934 32.6367 74.303C32.6367 67.3823 34.4499 62.0516 38.1226 58.3575C41.7954 54.6634 46.9558 52.793 53.6505 52.793C58.9039 52.793 62.9951 53.8685 66.017 55.9727C68.9924 58.1237 71.2239 61.397 72.7116 65.7925L61.3679 68.3176C61.089 67.3356 60.6705 66.3536 60.1127 65.5119C59.4153 64.5299 58.532 63.7818 57.4627 63.2206C56.3934 62.6595 55.1847 62.4257 53.9759 62.4257C51.047 62.4257 48.8154 63.5947 47.2813 65.9795C46.119 67.7097 45.5146 70.4686 45.5146 74.2094C45.5146 78.8388 46.212 82.0185 47.6067 83.7486C49.0014 85.4788 50.954 86.3205 53.511 86.3205C55.975 86.3205 57.8346 85.6191 59.0899 84.263C60.3451 82.8134 61.2749 80.8027 61.8328 78.1841ZM88.1 53.4944H100.931V68.1305H114.972V53.4944H127.896V95.2986H114.972V78.3711H100.931V95.2986H88.1V53.4944Z" fill="white"/>
<path d="M126.129 74.3964C126.129 67.5693 128.035 62.2385 131.801 58.4509C135.567 54.6633 140.866 52.7461 147.608 52.7461C154.535 52.7461 159.835 54.6165 163.6 58.3574C167.366 62.0983 169.226 67.3355 169.226 74.069C169.226 78.9789 168.389 82.9536 166.762 86.0866C165.181 89.1728 162.717 91.6979 159.695 93.3813C156.58 95.1114 152.722 95.9999 148.119 95.9999C143.423 95.9999 139.565 95.2517 136.496 93.7553C133.335 92.1655 130.731 89.6872 129.011 86.6477C127.105 83.3744 126.129 79.3063 126.129 74.3964ZM138.96 74.4431C138.96 78.6516 139.751 81.691 141.285 83.5615C142.819 85.3852 144.958 86.3204 147.654 86.3204C150.397 86.3204 152.536 85.4319 154.07 83.6082C155.604 81.7846 156.348 78.5581 156.348 73.882C156.348 69.9541 155.557 67.0549 153.977 65.278C152.396 63.4543 150.258 62.5659 147.561 62.5659C145.19 62.4723 142.912 63.5011 141.331 65.3248C139.751 67.1484 138.96 70.1879 138.96 74.4431ZM182.383 74.3964C182.383 67.5693 184.289 62.2385 188.054 58.4509C191.82 54.6633 197.12 52.7461 203.861 52.7461C210.788 52.7461 216.135 54.6165 219.854 58.3574C223.573 62.0983 225.479 67.3355 225.479 74.069C225.479 78.9789 224.643 82.9536 223.015 86.0866C221.435 89.1728 218.971 91.6979 215.949 93.3813C212.834 95.1114 208.975 95.9999 204.373 95.9999C199.677 95.9999 195.818 95.2517 192.75 93.7553C189.589 92.1655 186.985 89.6872 185.265 86.6477C183.359 83.3744 182.383 79.3063 182.383 74.3964ZM195.214 74.4431C195.214 78.6516 196.004 81.691 197.538 83.5615C199.073 85.3852 201.211 86.3204 203.908 86.3204C206.651 86.3204 208.789 85.4319 210.323 83.6082C211.858 81.7846 212.601 78.5581 212.601 73.882C212.601 69.9541 211.811 67.0549 210.23 65.278C208.65 63.4543 206.511 62.5659 203.815 62.5659C201.444 62.4723 199.119 63.5011 197.585 65.3248C196.004 67.1484 195.214 70.1879 195.214 74.4431Z" fill="white"/>
<path d="M224.132 53.4941H236.964V85.0109H257.001V95.2983H224.086V53.4941H224.132Z" fill="white"/>
<path fill-rule="evenodd" clip-rule="evenodd" d="M182.2 13.9936C169.858 23.3481 166.562 38.7358 173.697 48.2587C180.832 57.7817 196.446 58.8357 208.788 49.4812C221.13 40.1266 224.426 24.739 217.291 15.216C210.156 5.69306 194.541 4.63908 182.2 13.9936ZM170.509 50.675C161.635 38.8307 166.306 21.0213 179.801 10.7924C193.297 0.563476 211.605 0.955535 220.479 12.7998C229.353 24.6441 224.682 42.4534 211.186 52.6823C197.691 62.9113 179.383 62.5192 170.509 50.675Z" fill="white"/>
<path fill-rule="evenodd" clip-rule="evenodd" d="M182.2 13.9936C169.858 23.3481 166.562 38.7358 173.697 48.2587C180.832 57.7817 196.446 58.8357 208.788 49.4812C221.13 40.1266 224.426 24.739 217.291 15.216C210.156 5.69306 194.541 4.63908 182.2 13.9936ZM170.509 50.675C161.635 38.8307 166.306 21.0213 179.801 10.7924C193.297 0.563476 211.605 0.955535 220.479 12.7998C229.353 24.6441 224.682 42.4534 211.186 52.6823C197.691 62.9113 179.383 62.5192 170.509 50.675Z" fill="white"/>
<path d="M182.43 28.6639L187.079 25.3906L192.797 33.5738C193.773 34.8831 194.517 36.2859 195.075 37.829C195.401 38.9981 195.308 40.2606 194.843 41.3829C194.238 42.7857 193.262 43.9547 191.96 44.7964C190.426 45.8719 189.124 46.4798 188.009 46.6668C186.939 46.8539 185.824 46.6668 184.801 46.1992C183.685 45.6381 182.709 44.8432 181.965 43.8144L185.963 40.0735C186.288 40.5879 186.707 41.0555 187.172 41.4296C187.497 41.6634 187.869 41.8037 188.288 41.8037C188.613 41.8037 188.938 41.6634 189.171 41.4764C189.636 41.1958 189.961 40.6347 189.915 40.0735C189.775 39.2786 189.45 38.4837 188.938 37.8758L182.43 28.6639ZM196.377 33.8544L200.608 30.4876C201.072 31.0487 201.677 31.4696 202.328 31.7034C203.258 31.9839 204.234 31.7969 205.024 31.189C205.582 30.8149 206.047 30.3005 206.233 29.6459C206.512 28.8042 206.047 27.869 205.21 27.5884C205.071 27.5416 204.931 27.4949 204.792 27.4949C204.234 27.4481 203.258 27.6819 201.816 28.2898C199.445 29.2718 197.586 29.6459 196.191 29.5056C194.843 29.3653 193.587 28.6639 192.844 27.4949C192.286 26.7 192.007 25.7647 191.96 24.8295C191.96 23.754 192.239 22.6785 192.844 21.7901C193.727 20.5275 194.796 19.452 196.098 18.6103C198.051 17.2543 199.771 16.5996 201.258 16.5996C202.746 16.5996 204.141 17.301 205.443 18.7506L201.258 22.0706C200.422 20.9951 198.841 20.7613 197.772 21.603L197.632 21.7433C197.167 22.0239 196.842 22.4447 196.656 22.9591C196.516 23.3332 196.609 23.754 196.842 24.0813C197.028 24.3151 197.307 24.5022 197.632 24.5022C198.004 24.549 198.655 24.3619 199.585 23.9411C201.909 22.9591 203.676 22.398 204.885 22.2109C205.907 22.0239 206.977 22.1174 207.953 22.5382C208.836 22.9123 209.58 23.567 210.092 24.3619C210.743 25.2971 211.114 26.4194 211.161 27.5884C211.207 28.8042 210.882 29.9732 210.231 31.0019C209.394 32.2645 208.325 33.34 207.07 34.1817C204.513 35.9586 202.421 36.7068 200.747 36.4262C198.934 36.1456 197.446 35.2104 196.377 33.8544Z" fill="white"/>
</g>
<defs>
<clipPath id="clip0_35_5714">
<rect width="257" height="96" fill="white"/>
</clipPath>
</defs>
</svg>
